<svg width="20" height="18" viewBox="0 0 20 18" fill="none" xmlns="http://www.w3.org/2000/svg">
<path d="M6.11108 6.29639H8.70368" stroke="#687FF8" stroke-width="0.915033" stroke-linecap="round" stroke-linejoin="round"/>
<path d="M15.725 6.94458H14.0385C12.8816 6.94458 11.9443 7.81504 11.9443 8.88902C11.9443 9.96301 12.8822 10.8335 14.0379 10.8335H15.725C15.7794 10.8335 15.806 10.8335 15.8287 10.8322C16.1787 10.8108 16.4574 10.5522 16.4801 10.2275C16.4814 10.2067 16.4814 10.1814 16.4814 10.1315V7.64652C16.4814 7.59662 16.4814 7.57134 16.4801 7.5506C16.4567 7.22588 16.1787 6.96727 15.8287 6.94588C15.8067 6.94458 15.7794 6.94458 15.725 6.94458Z" stroke="#687FF8" stroke-width="0.915033"/>
<path d="M15.8107 6.9446C15.7601 5.73126 15.5981 4.98719 15.0737 4.46349C14.3148 3.70386 13.0924 3.70386 10.6482 3.70386H8.70374C6.25957 3.70386 5.03717 3.70386 4.27818 4.46349C3.51855 5.22247 3.51855 6.44488 3.51855 8.88904C3.51855 11.3332 3.51855 12.5556 4.27818 13.3146C5.03717 14.0742 6.25957 14.0742 8.70374 14.0742H10.6482C13.0924 14.0742 14.3148 14.0742 15.0737 13.3146C15.5981 12.7909 15.7608 12.0468 15.8107 10.8335" stroke="#687FF8" stroke-width="0.915033"/>
<path d="M13.8828 8.88916H13.8895" stroke="#687FF8" stroke-width="0.915033" stroke-linecap="round" stroke-linejoin="round"/>
</svg>
