<svg xmlns="http://www.w3.org/2000/svg" xmlns:xlink="http://www.w3.org/1999/xlink" version="1.1" width="1000" height="1000" viewBox="0 0 1000 1000" xml:space="preserve">
<desc>Created with Fabric.js 3.5.0</desc>
<defs>
</defs>
<rect x="0" y="0" width="100%" height="100%" fill="#ffffff"/>
<g transform="matrix(17.8253 0 0 17.8253 500 500)" id="679580">
<g style="" vector-effect="non-scaling-stroke">
		<g transform="matrix(1 0 0 1 13.6458 0)">
<path style="stroke: none; stroke-width: 1; stroke-dasharray: none; stroke-linecap: butt; stroke-dashoffset: 0; stroke-linejoin: miter; stroke-miterlimit: 4; is-custom-font: none; font-file-url: none; fill: rgb(0,0,0); fill-rule: nonzero; opacity: 1;" transform=" translate(-39.1458, -10.5)" d="M 28.02 14 L 31.22 7 H 31.95 L 35.15 14 H 34.37 L 31.43 7.43 H 31.73 L 28.79 14 H 28.02 Z M 29.28 12.13 L 29.5 11.53 H 33.57 L 33.79 12.13 H 29.28 Z M 35.0157 14 L 37.8857 10.12 V 10.69 L 35.1857 7 H 36.0357 L 38.3057 10.08 L 37.9757 10.09 L 40.2457 7 H 41.0457 L 38.3757 10.64 V 10.12 L 41.2357 14 H 40.3757 L 37.9557 10.71 H 38.2657 L 35.8657 14 H 35.0157 Z M 42.3041 14 V 7 H 43.0441 V 14 H 42.3041 Z M 45.9816 10.13 H 49.6816 V 10.76 H 45.9816 V 10.13 Z M 46.0616 13.36 H 50.2716 V 14 H 45.3216 V 7 H 50.1216 V 7.64 H 46.0616 V 13.36 Z" stroke-linecap="round"/>
</g>
		<g transform="matrix(1 0 0 1 -14.4453 -0.1609)">
<path style="stroke: none; stroke-width: 1; stroke-dasharray: none; stroke-linecap: butt; stroke-dashoffset: 0; stroke-linejoin: miter; stroke-miterlimit: 4; is-custom-font: none; font-file-url: none; fill: rgb(101,133,241); fill-rule: nonzero; opacity: 1;" transform=" translate(-11.0548, -10.3391)" d="M 19.9144 0.590179 L 18.5955 2.77033 L 18.2929 2.67236 C 17.1265 2.29436 15.2195 2.36513 14.0991 2.67709 L 13.8025 2.75976 L 12.5702 0.673926 C 11.1251 3.64968 11.1838 5.72533 11.9347 7.05796 C 12.7386 8.48487 14.4001 9.1673 16.1936 9.14513 C 18.288 9.11909 20.0164 8.30015 20.7928 6.81648 C 21.5197 5.42721 21.4667 3.35939 19.9144 0.590222 L 19.9144 0.590179 Z M 13.9192 4.91223 C 14.712 4.91653 15.1807 5.57129 15.2711 6.48678 C 13.6765 7.25635 12.9523 6.63279 12.6425 5.34618 C 13.1316 5.04269 13.5588 4.9103 13.9191 4.91219 L 13.9192 4.91223 Z M 18.6139 4.91223 C 18.9742 4.9103 19.4015 5.04269 19.8905 5.34622 C 19.5807 6.63279 18.8565 7.25635 17.262 6.48678 C 17.3524 5.57129 17.8212 4.91649 18.6139 4.91223 H 18.6139 Z M 6.00034 7.10192 C 5.94766 7.10149 5.89524 7.10179 5.84307 7.10269 C 4.54649 7.12573 3.43072 7.55773 2.58849 8.24455 C 0.721758 9.76693 0.127672 12.5737 2.03746 15.3856 C 2.90943 16.8463 3.94665 17.7162 5.07952 18.1436 C 6.49104 18.6762 7.9436 18.5228 9.37382 18.3204 C 10.804 18.118 12.2035 17.8637 13.5373 17.9586 C 14.8711 18.0537 16.2052 18.396 17.4262 19.7274 C 18.2587 20.6351 19.4409 19.6575 18.4497 18.6895 C 16.9448 17.2196 15.3333 16.6519 13.7499 16.5393 C 12.1665 16.4267 10.6476 16.7412 9.27228 16.9358 C 7.89698 17.1305 6.68247 17.2174 5.63893 16.8237 C 5.02061 16.5904 4.42257 16.1877 3.85358 15.4856 H 18.9676 C 19.5551 13.2386 19.6064 10.9151 19.0481 9.3809 C 18.1988 9.7457 17.2257 9.93519 16.2035 9.94796 H 16.2034 C 14.9208 9.96385 13.6486 9.6504 12.641 8.96728 C 12.4335 9.10183 12.2288 9.24058 12.0269 9.38343 L 11.7805 9.55776 L 11.5446 9.36947 C 9.54101 7.77103 7.63328 7.11447 6.00038 7.10188 L 6.00034 7.10192 Z" stroke-linecap="round"/>
</g>
</g>
</g>
<g transform="matrix(8.582 0 0 4.103 762.5859 500.0006)" id="882834">
<path style="stroke: none; stroke-width: 1; stroke-dasharray: none; stroke-linecap: butt; stroke-dashoffset: 0; stroke-linejoin: miter; stroke-miterlimit: 4; is-custom-font: none; font-file-url: none; fill: rgb(255,255,255); fill-rule: nonzero; opacity: 0.75;" vector-effect="non-scaling-stroke" transform=" translate(-37.5, -49)" d="M 1.77331 27.35 C -4.01435 50.3889 5.31622 71.089 16.0396 81.1568 C 26.2897 90.781 40.1233 98.0932 58.2435 97.9991 C 73.0507 97.9184 79.3116 83.3074 71.8337 74.0999 C 60.1231 59.6636 56.8777 51.4373 55.4308 37.7134 C 53.6729 21.0324 54.6871 10.0103 42.0976 2.29478 C 32.0909 -3.83459 8.25061 1.59582 1.77331 27.35 Z" stroke-linecap="round"/>
</g>
<g transform="matrix(8.582 0 0 4.103 832.8576 485.6187)" id="198392">
<path style="stroke: none; stroke-width: 1; stroke-dasharray: none; stroke-linecap: butt; stroke-dashoffset: 0; stroke-linejoin: miter; stroke-miterlimit: 4; is-custom-font: none; font-file-url: none; fill: rgb(255,255,255); fill-rule: nonzero; opacity: 0.75;" vector-effect="non-scaling-stroke" transform=" translate(-37.5, -49)" d="M 1.77331 27.35 C -4.01435 50.3889 5.31622 71.089 16.0396 81.1568 C 26.2897 90.781 40.1233 98.0932 58.2435 97.9991 C 73.0507 97.9184 79.3116 83.3074 71.8337 74.0999 C 60.1231 59.6636 56.8777 51.4373 55.4308 37.7134 C 53.6729 21.0324 54.6871 10.0103 42.0976 2.29478 C 32.0909 -3.83459 8.25061 1.59582 1.77331 27.35 Z" stroke-linecap="round"/>
</g>
<g transform="matrix(8.582 0 0 4.103 852.8576 505.6187)" id="309785">
<path style="stroke: none; stroke-width: 1; stroke-dasharray: none; stroke-linecap: butt; stroke-dashoffset: 0; stroke-linejoin: miter; stroke-miterlimit: 4; is-custom-font: none; font-file-url: none; fill: rgb(255,255,255); fill-rule: nonzero; opacity: 0.75;" vector-effect="non-scaling-stroke" transform=" translate(-37.5, -49)" d="M 1.77331 27.35 C -4.01435 50.3889 5.31622 71.089 16.0396 81.1568 C 26.2897 90.781 40.1233 98.0932 58.2435 97.9991 C 73.0507 97.9184 79.3116 83.3074 71.8337 74.0999 C 60.1231 59.6636 56.8777 51.4373 55.4308 37.7134 C 53.6729 21.0324 54.6871 10.0103 42.0976 2.29478 C 32.0909 -3.83459 8.25061 1.59582 1.77331 27.35 Z" stroke-linecap="round"/>
</g>
<g transform="matrix(8.582 0 0 4.103 783.1837 479.423)" id="47988">
<path style="stroke: none; stroke-width: 1; stroke-dasharray: none; stroke-linecap: butt; stroke-dashoffset: 0; stroke-linejoin: miter; stroke-miterlimit: 4; is-custom-font: none; font-file-url: none; fill: rgb(255,255,255); fill-rule: nonzero; opacity: 0.75;" vector-effect="non-scaling-stroke" transform=" translate(-37.5, -49)" d="M 1.77331 27.35 C -4.01435 50.3889 5.31622 71.089 16.0396 81.1568 C 26.2897 90.781 40.1233 98.0932 58.2435 97.9991 C 73.0507 97.9184 79.3116 83.3074 71.8337 74.0999 C 60.1231 59.6636 56.8777 51.4373 55.4308 37.7134 C 53.6729 21.0324 54.6871 10.0103 42.0976 2.29478 C 32.0909 -3.83459 8.25061 1.59582 1.77331 27.35 Z" stroke-linecap="round"/>
</g>
<g transform="matrix(8.582 0 0 4.103 756.988 485.6187)" id="501839">
<path style="stroke: none; stroke-width: 1; stroke-dasharray: none; stroke-linecap: butt; stroke-dashoffset: 0; stroke-linejoin: miter; stroke-miterlimit: 4; is-custom-font: none; font-file-url: none; fill: rgb(255,255,255); fill-rule: nonzero; opacity: 0.75;" vector-effect="non-scaling-stroke" transform=" translate(-37.5, -49)" d="M 1.77331 27.35 C -4.01435 50.3889 5.31622 71.089 16.0396 81.1568 C 26.2897 90.781 40.1233 98.0932 58.2435 97.9991 C 73.0507 97.9184 79.3116 83.3074 71.8337 74.0999 C 60.1231 59.6636 56.8777 51.4373 55.4308 37.7134 C 53.6729 21.0324 54.6871 10.0103 42.0976 2.29478 C 32.0909 -3.83459 8.25061 1.59582 1.77331 27.35 Z" stroke-linecap="round"/>
</g>
<g transform="matrix(8.582 0 0 4.103 776.988 505.6187)" id="89816">
<path style="stroke: none; stroke-width: 1; stroke-dasharray: none; stroke-linecap: butt; stroke-dashoffset: 0; stroke-linejoin: miter; stroke-miterlimit: 4; is-custom-font: none; font-file-url: none; fill: rgb(255,255,255); fill-rule: nonzero; opacity: 0.75;" vector-effect="non-scaling-stroke" transform=" translate(-37.5, -49)" d="M 1.77331 27.35 C -4.01435 50.3889 5.31622 71.089 16.0396 81.1568 C 26.2897 90.781 40.1233 98.0932 58.2435 97.9991 C 73.0507 97.9184 79.3116 83.3074 71.8337 74.0999 C 60.1231 59.6636 56.8777 51.4373 55.4308 37.7134 C 53.6729 21.0324 54.6871 10.0103 42.0976 2.29478 C 32.0909 -3.83459 8.25061 1.59582 1.77331 27.35 Z" stroke-linecap="round"/>
</g>
<g transform="matrix(1 0 0 1 689.9532 515.7359)" style="" id="248073">
		
<path xml:space="preserve" font-family="Lato" font-size="165" font-style="normal" font-weight="bold" style="stroke: none; stroke-width: 1; stroke-dasharray: none; stroke-linecap: butt; stroke-dashoffset: 0; stroke-linejoin: miter; stroke-miterlimit: 4; is-custom-font: none; font-file-url: none; fill: rgb(0,0,0); fill-rule: nonzero; opacity: 1; white-space: pre;" d="M-182.06-67.46L-135.20 51.83L-152.36 51.83Q-155.25 51.83-157.11 50.39Q-158.96 48.95-159.79 46.80L-159.79 46.80L-168.70 22.46L-218.12 22.46L-227.03 46.80Q-227.69 48.70-229.62 50.27Q-231.56 51.83-234.37 51.83L-234.37 51.83L-251.61 51.83L-204.75-67.46L-182.06-67.46ZM-197.90-32.73L-212.42 6.79L-174.39 6.79L-188.91-32.89Q-189.90-35.53-191.10-39.12Q-192.29-42.71-193.45-46.92L-193.45-46.92Q-194.60-42.71-195.72-39.08Q-196.83-35.45-197.90-32.73L-197.90-32.73ZM-133.97 51.83L-94.28-9.55L-132.32-67.46L-110.21-67.46Q-107.90-67.46-106.86-66.84Q-105.83-66.22-105.01-64.82L-105.01-64.82L-77.87-21.01Q-77.45-22.09-76.96-23.12Q-76.46-24.15-75.80-25.22L-75.80-25.22L-50.97-64.41Q-49.16-67.46-46.27-67.46L-46.27-67.46L-24.98-67.46L-63.43-10.45L-23.91 51.83L-46.10 51.83Q-48.33 51.83-49.69 50.68Q-51.05 49.52-51.96 48.04L-51.96 48.04L-79.60 2.33Q-79.93 3.32-80.34 4.19Q-80.75 5.06-81.17 5.80L-81.17 5.80L-107.65 48.04Q-108.56 49.44-109.88 50.64Q-111.20 51.83-113.18 51.83L-113.18 51.83L-133.97 51.83ZM47.12-67.46L93.98 51.83L76.82 51.83Q73.93 51.83 72.08 50.39Q70.22 48.95 69.40 46.80L69.40 46.80L60.49 22.46L11.07 22.46L2.16 46.80Q1.50 48.70-0.44 50.27Q-2.38 51.83-5.18 51.83L-5.18 51.83L-22.43 51.83L24.43-67.46L47.12-67.46ZM31.28-32.73L16.76 6.79L54.79 6.79L40.27-32.89Q39.28-35.53 38.09-39.12Q36.89-42.71 35.74-46.92L35.74-46.92Q34.58-42.71 33.47-39.08Q32.35-35.45 31.28-32.73L31.28-32.73ZM128.47-67.46L128.47 33.52L176.23 33.52L176.23 51.83L106.27 51.83L106.27-67.46L128.47-67.46ZM191.58-67.46L266.82-67.46L266.82-49.81L213.94-49.81L213.94-16.72L255.60-16.72L255.60 0.35L213.94 0.35L213.94 34.10L266.82 34.10L266.82 51.83L191.58 51.83L191.58-67.46Z"/></g>
</svg>